<svg width="44" height="54" viewBox="0 0 44 54" fill="none" xmlns="http://www.w3.org/2000/svg">
<g clip-path="url(#clip0_37_737)">
<path d="M39.1288 9.29295C38.8782 9.58273 38.6527 9.88751 38.3771 10.1523C37.9261 10.577 37.3698 10.582 36.9739 10.1973C36.568 9.80757 36.5429 9.24798 36.9739 8.80331C37.8409 7.90897 38.7279 7.02962 39.63 6.17026C40.0659 5.75557 40.5972 5.75557 41.0331 6.17526C41.9352 7.03962 42.8172 7.91397 43.6892 8.8133C44.1151 9.25298 44.0901 9.82755 43.6892 10.2123C43.3133 10.577 42.7972 10.577 42.3311 10.1973C42.1607 10.0574 42.0003 9.9025 41.855 9.73762C41.7297 9.58773 41.6345 9.41286 41.5243 9.24798C41.4591 9.28296 41.389 9.32293 41.3238 9.3579V10.0474C41.3238 17.1571 41.3238 24.2669 41.3238 31.3766C41.3238 34.2195 40.2263 36.5078 37.911 38.2015C37.7557 38.3164 37.6054 38.5862 37.6254 38.7711C38.1165 44.1122 35.7862 47.9893 31.3511 50.7472C28.5748 52.476 25.5028 53.3553 22.2755 53.765C18.0359 54.2996 13.8764 53.9649 9.84727 52.5159C6.4746 51.3018 3.57301 49.4232 1.66868 46.2805C0.571186 44.4669 0.0249451 42.4934 -0.000111839 40.3849C-0.0502257 35.9882 0.561164 31.7063 2.39032 27.6593C4.23451 23.5824 7.10103 20.4297 10.9698 18.1514C12.7489 17.1022 14.568 16.2078 16.6327 15.8781C19.7498 15.3784 22.6614 15.933 25.4277 17.4319C28.9056 19.3155 31.8322 21.7937 33.922 25.1862C35.4104 27.6044 36.3675 30.2274 36.9439 32.9954C36.999 33.2702 36.9138 33.6449 36.7584 33.8847C35.9767 35.1138 34.809 35.7034 33.3707 35.7583C32.6691 35.7833 31.9625 35.7533 31.2559 35.7733C30.7047 35.7883 30.394 36.1381 30.3589 36.6527C30.3238 37.1423 30.5844 37.562 31.0905 37.607C33.6464 37.8418 36.1069 37.7069 37.9361 35.5335C38.9083 34.3794 39.3493 33.0354 39.3493 31.5365C39.3493 24.2868 39.3493 17.0372 39.3493 9.78758C39.3493 9.65268 39.3243 9.52278 39.3092 9.38788C39.2491 9.3579 39.194 9.32293 39.1338 9.29295H39.1288ZM19.409 42.4634C19.6095 42.3984 19.7999 42.3435 19.9853 42.2785C21.6942 41.659 22.922 39.9802 22.9671 38.1915C23.0372 35.6035 21.1279 33.585 18.512 33.48C17.0186 33.4201 15.9211 32.4208 15.8409 31.0468C15.7557 29.6279 16.753 28.4138 18.1712 28.2189C19.5092 28.0341 20.747 28.9784 21.0377 30.4023C21.188 31.1518 21.624 31.5065 22.2254 31.3716C22.8167 31.2417 23.0924 30.7221 22.932 29.9976C22.5612 28.3189 21.589 27.1497 19.9603 26.5702C19.5944 26.4402 19.399 26.3153 19.394 25.8857C19.3839 25.3211 18.983 24.9513 18.4969 24.9364C17.9707 24.9214 17.5398 25.2861 17.5347 25.8757C17.5297 26.3103 17.3343 26.4303 16.9685 26.5602C13.9967 27.6044 12.9694 31.2067 14.9288 33.6699C15.891 34.874 17.199 35.3087 18.6874 35.4136C20.0204 35.5085 21.0026 36.5827 21.0377 37.8768C21.0778 39.2358 20.1457 40.4049 18.8778 40.5898C17.5147 40.7896 16.2618 40.0052 15.896 38.7112C15.8208 38.4414 15.8108 38.1516 15.7056 37.8968C15.5202 37.4521 15.1443 37.2722 14.6782 37.3522C14.2322 37.4271 13.9616 37.7119 13.9065 38.1566C13.8814 38.3714 13.9065 38.6012 13.9516 38.8111C14.3274 40.5348 15.3398 41.7039 17.0136 42.3135C17.1839 42.3734 17.3944 42.5533 17.4295 42.7082C17.6099 43.5826 17.8555 43.8873 18.4468 43.8673C19.0532 43.8474 19.3138 43.4826 19.3739 42.5733C19.3739 42.5533 19.3839 42.5383 19.414 42.4584L19.409 42.4634Z" fill="#E8E8E8"/>
<path d="M12.4131 3.75734C12.4632 3.08284 12.4883 2.49827 12.5584 1.9237C12.6687 1.06933 13.1648 0.494754 13.9666 0.199972C14.7484 -0.0848166 15.3999 0.150009 16.0012 0.714591C17.5498 2.16851 19.5894 2.23347 21.2682 0.924436C21.4887 0.749565 21.7092 0.569699 21.9397 0.409817C23.0523 -0.359613 24.3753 -0.0248609 24.8714 1.22921C25.1119 1.84376 25.2272 2.55823 25.2172 3.22273C25.1621 6.93998 24.24 10.4724 22.7516 13.8649C22.6213 14.1596 22.486 14.2646 22.1652 14.1796C19.9402 13.5901 17.7151 13.5601 15.4901 14.1746C15.1393 14.2696 14.999 14.1446 14.8687 13.8249C13.8864 11.3867 12.9744 8.92351 12.6386 6.30045C12.5233 5.4261 12.4782 4.54176 12.4131 3.75734Z" fill="#E8E8E8"/>
<path d="M27.8482 16.5628C26.6405 15.9733 25.543 15.4337 24.4004 14.8741C25.9339 11.2218 27.1567 7.48957 27.1015 3.47754C29.3567 3.47754 31.276 5.2862 31.5466 7.5845C31.8624 10.2575 30.9002 12.5408 29.4018 14.6593C28.9307 15.3288 28.3694 15.9283 27.8432 16.5678L27.8482 16.5628Z" fill="#E8E8E8"/>
<path d="M10.509 3.44238C10.6594 7.42443 11.5313 11.2416 13.2352 14.8589C12.1678 15.3985 11.1405 15.9231 10.0981 16.4328C9.99285 16.4827 9.76733 16.4477 9.68715 16.3628C7.50219 13.9796 5.84843 11.3515 6.03886 7.95904C6.17918 5.46089 7.92815 3.71218 10.509 3.44738V3.44238Z" fill="#E8E8E8"/>
</g>
<defs>
<clipPath id="clip0_37_737">
<rect width="44" height="54" fill="white"/>
</clipPath>
</defs>
</svg>
