<svg width="12" height="12" viewBox="0 0 12 12" fill="none" xmlns="http://www.w3.org/2000/svg">
<path d="M0.705231 0.705231C0.916169 0.494556 1.2021 0.376221 1.50023 0.376221C1.79836 0.376221 2.08429 0.494556 2.29523 0.705231L6.00023 4.41023L9.70523 0.705231C9.80822 0.594701 9.93242 0.506047 10.0704 0.444559C10.2084 0.383071 10.3574 0.350008 10.5084 0.347343C10.6595 0.344678 10.8095 0.372465 10.9496 0.429047C11.0897 0.485628 11.217 0.569846 11.3238 0.676674C11.4306 0.783502 11.5148 0.910752 11.5714 1.05083C11.628 1.19092 11.6558 1.34096 11.6531 1.49201C11.6505 1.64307 11.6174 1.79204 11.5559 1.93004C11.4944 2.06804 11.4058 2.19224 11.2952 2.29523L7.59023 6.00023L11.2952 9.70523C11.4939 9.91849 11.6021 10.2006 11.597 10.492C11.5919 10.7835 11.4738 11.0615 11.2677 11.2677C11.0615 11.4738 10.7835 11.5919 10.492 11.597C10.2006 11.6021 9.91849 11.4939 9.70523 11.2952L6.00023 7.59023L2.29523 11.2952C2.19224 11.4058 2.06804 11.4944 1.93004 11.5559C1.79204 11.6174 1.64307 11.6505 1.49201 11.6531C1.34096 11.6558 1.19092 11.628 1.05083 11.5714C0.910752 11.5148 0.783502 11.4306 0.676674 11.3238C0.569846 11.217 0.485628 11.0897 0.429047 10.9496C0.372465 10.8095 0.344678 10.6595 0.347343 10.5084C0.350008 10.3574 0.383071 10.2084 0.444559 10.0704C0.506047 9.93242 0.594701 9.80822 0.705231 9.70523L4.41023 6.00023L0.705231 2.29523C0.494556 2.08429 0.376221 1.79836 0.376221 1.50023C0.376221 1.2021 0.494556 0.916169 0.705231 0.705231Z" fill="#F1F1F1"/>
</svg>
