<svg width="32" height="32" viewBox="0 0 32 32" fill="none" xmlns="http://www.w3.org/2000/svg">
<path opacity="0.5" d="M21.3333 5.33594C24.2333 5.35194 25.804 5.48127 26.828 6.50527C28 7.67727 28 9.5626 28 13.3333V21.3333C28 25.1053 28 26.9906 26.828 28.1626C25.6573 29.3333 23.7707 29.3333 20 29.3333H12C8.22933 29.3333 6.34267 29.3333 5.172 28.1626C4 26.9893 4 25.1053 4 21.3333V13.3333C4 9.5626 4 7.67727 5.172 6.50527C6.196 5.48127 7.76667 5.35194 10.6667 5.33594" stroke="white" stroke-width="1.5"/>
<path d="M13.9999 18.6667H22.6666M9.33325 18.6667H9.99992M9.33325 14H9.99992M9.33325 23.3333H9.99992M13.9999 14H22.6666M13.9999 23.3333H22.6666" stroke="#F3F3F3" stroke-width="1.5" stroke-linecap="round"/>
<path d="M10.6667 4.6665C10.6667 4.13607 10.8775 3.62736 11.2525 3.25229C11.6276 2.87722 12.1363 2.6665 12.6667 2.6665H19.3334C19.8638 2.6665 20.3726 2.87722 20.7476 3.25229C21.1227 3.62736 21.3334 4.13607 21.3334 4.6665V5.99984C21.3334 6.53027 21.1227 7.03898 20.7476 7.41405C20.3726 7.78912 19.8638 7.99984 19.3334 7.99984H12.6667C12.1363 7.99984 11.6276 7.78912 11.2525 7.41405C10.8775 7.03898 10.6667 6.53027 10.6667 5.99984V4.6665Z" stroke="#F3F3F3" stroke-width="1.5"/>
</svg>
