<svg width="50" height="54" viewBox="0 0 50 54" fill="none" xmlns="http://www.w3.org/2000/svg">
<path d="M8.52119 33.1442C8.31932 33.0279 8.16628 32.9363 8.00999 32.8518C5.8089 31.661 3.60129 30.4773 1.40671 29.2795C0.263833 28.6559 -0.231088 27.4898 0.11731 26.2779C0.335466 25.517 0.827131 25.0308 1.4816 24.682C3.65664 23.5195 5.82192 22.3393 7.99371 21.1626C8.15 21.0781 8.30304 20.9865 8.51794 20.8667C8.32257 20.7469 8.18256 20.6553 8.03604 20.5778C5.86425 19.4082 3.69572 18.2315 1.51741 17.076C0.592694 16.5863 0.00986031 15.8394 0.0196285 14.7085C0.0293966 13.6058 0.602463 12.8836 1.5109 12.3939C8.94448 8.38481 16.3715 4.36511 23.7986 0.33836C24.6094 -0.102011 25.3811 -0.116102 26.1853 0.320745C33.6417 4.35806 41.1013 8.39538 48.5642 12.4257C49.4531 12.9048 49.9903 13.6516 49.9903 14.7297C49.9903 15.8324 49.4303 16.5827 48.5251 17.0654C46.1938 18.309 43.8689 19.5667 41.479 20.8526C41.7004 20.9794 41.8697 21.0781 42.039 21.1732C44.2239 22.3569 46.4152 23.5336 48.5967 24.7278C49.7266 25.3444 50.2085 26.4506 49.9024 27.673C49.707 28.4446 49.2382 28.9589 48.5837 29.3077C46.3956 30.4844 44.2108 31.6681 42.0228 32.8483C41.8665 32.9328 41.7102 33.0244 41.4953 33.1442C41.7037 33.2675 41.8567 33.3661 42.0195 33.4542C44.2206 34.645 46.4217 35.8287 48.6195 37.03C49.7559 37.6501 50.241 38.8303 49.8829 40.0386C49.6517 40.8207 49.1242 41.2928 48.46 41.6486C42.7261 44.7383 36.9987 47.8455 31.2713 50.9457C29.6107 51.8441 27.9371 52.7213 26.2895 53.6479C25.4104 54.1411 24.5996 54.1199 23.7107 53.6408C16.3683 49.6528 9.01286 45.693 1.67045 41.7085C1.27972 41.4972 0.875971 41.2435 0.589438 40.8982C-0.445988 39.6617 -0.068285 37.8262 1.36438 37.0406C3.55896 35.8393 5.76657 34.6591 7.96766 33.4683C8.13698 33.3767 8.30304 33.2781 8.52445 33.1512L8.52119 33.1442ZM7.41088 39.2742C7.65508 39.4151 7.8244 39.5172 7.99697 39.6088C13.5095 42.5893 19.0252 45.5662 24.5312 48.5607C24.8959 48.758 25.1596 48.7368 25.5113 48.5466C30.353 45.915 35.2013 43.3009 40.0463 40.6798C40.8831 40.2289 41.7134 39.7674 42.6088 39.2812C40.6259 38.2067 38.7081 37.178 36.8033 36.1246C36.4842 35.9485 36.2367 35.9591 35.9176 36.1317C32.743 37.8685 29.5488 39.5701 26.3807 41.321C25.4234 41.8494 24.5605 41.8354 23.6065 41.3069C20.4384 39.5525 17.2539 37.8368 14.063 36.1282C13.8611 36.0189 13.5355 35.9872 13.3402 36.0894C11.3833 37.1146 9.4394 38.175 7.41413 39.2706L7.41088 39.2742ZM7.42716 26.9896C7.60624 27.1023 7.67787 27.1552 7.75602 27.1974C13.3857 30.2413 19.0187 33.2851 24.6419 36.3395C24.9643 36.5157 25.1987 36.4241 25.4787 36.2726C30.4931 33.5564 35.5106 30.8437 40.5282 28.131C41.1859 27.7752 41.8404 27.4123 42.573 27.0142C42.3451 26.8733 42.2018 26.7747 42.0521 26.6937C40.3101 25.753 38.5648 24.823 36.8326 23.8647C36.5005 23.6815 36.2465 23.671 35.9046 23.8577C32.6844 25.6192 29.4511 27.3524 26.2309 29.1104C25.4071 29.5613 24.6256 29.5754 23.7986 29.121C21.0993 27.6413 18.3936 26.1828 15.6845 24.7173C15.0203 24.3579 14.3495 23.7308 13.6853 23.7344C12.9983 23.7344 12.3112 24.3438 11.6307 24.7067C10.2567 25.443 8.88913 26.1934 7.4239 26.9861L7.42716 26.9896Z" fill="#E8E8E8"/>
</svg>
