<svg width="24" height="24" viewBox="0 0 24 24" fill="none" xmlns="http://www.w3.org/2000/svg">
<g clip-path="url(#clip0_102_1151)">
<path d="M16.6006 7.23438C17.7141 6.3355 19.0225 6.08095 20.4893 6.17578C20.4978 6.17866 20.5112 6.18347 20.5293 6.19238V6.19336C20.612 6.23535 20.6323 6.28582 20.6367 6.32617C20.6419 6.37486 20.628 6.47239 20.5205 6.58691C19.6866 7.46856 19.2681 8.53089 19.2373 9.72852C19.2301 9.96947 19.3209 10.1898 19.3975 10.3291L19.3994 10.3311C19.5025 10.5159 19.61 10.6968 19.7129 10.8691L20.0098 11.3799C20.0628 11.4768 20.148 11.6001 20.293 11.6895C20.4425 11.7816 20.5965 11.8008 20.7168 11.8008H20.7207C21.5527 11.794 22.3852 11.7979 23.2227 11.7979C23.3752 11.7979 23.4275 11.8398 23.4414 11.8535C23.4515 11.8635 23.4769 11.8937 23.4893 11.9707L23.4971 12.0645C23.4971 12.967 23.5039 13.8572 23.4971 14.7539C23.4868 15.8997 22.9792 16.7442 21.999 17.3574H21.998C21.4152 17.7224 20.7492 17.8229 19.999 17.7803H19.998C19.8603 17.7727 19.7061 17.7885 19.5537 17.8633C19.4044 17.9366 19.2997 18.0453 19.2227 18.1484C18.6483 18.9176 17.9666 19.5754 17.1826 20.1191L16.8398 20.3457C16.741 20.4079 16.6194 20.5015 16.5312 20.6494C16.4402 20.8023 16.4145 20.9623 16.417 21.1074V21.1084C16.4271 21.8219 16.4243 22.535 16.4209 23.2549V23.2568C16.4209 23.3761 16.3844 23.4263 16.3652 23.4453C16.3464 23.464 16.2969 23.4993 16.1787 23.498H16.1768C15.0072 23.4872 14.0118 23.0662 13.1709 22.2529C13.0446 22.1308 12.8967 22.0346 12.7178 21.9863C12.5441 21.9395 12.3813 21.9495 12.2461 21.9707C11.3957 22.104 10.5391 22.1313 9.67969 22.0596H9.67871C9.30522 22.0293 8.94635 21.9868 8.53418 21.9463L7.98535 21.8926V23.2529C7.98445 23.3738 7.94799 23.4241 7.92871 23.4434C7.90934 23.4626 7.85805 23.4995 7.73535 23.5H7.73438C5.81045 23.5103 4.004 22.1201 3.48633 20.2715L3.43945 20.0908C3.38973 19.8737 3.26738 19.6844 3.14258 19.5439L3.01953 19.4209C1.88288 18.3921 1.07995 17.1825 0.706055 15.7168V15.7158L0.644531 15.4551C0.592433 15.2072 0.553541 14.9559 0.5 14.6719V13.5459C0.591433 13.0856 0.625865 12.7459 0.743164 12.3848C0.917402 11.8488 1.14421 11.3526 1.36426 10.7988L1.46094 10.5547L1.31543 10.3369C1.07909 9.98334 0.873741 9.73015 0.702148 9.41211C0.662875 9.33821 0.630138 9.24681 0.594727 9.12402C0.570962 9.04158 0.535439 8.91092 0.5 8.79102V8.15039C0.511568 8.11973 0.527434 8.07621 0.539062 8.02637C0.730863 7.23466 1.16219 6.68872 1.87305 6.37207L2.01855 6.31152C2.11819 6.27369 2.19393 6.29654 2.24023 6.33203C2.28607 6.36725 2.322 6.42856 2.31055 6.52148C2.3041 6.57251 2.28876 6.59573 2.27051 6.61523C2.24464 6.64279 2.19244 6.68133 2.08887 6.72559L2.08789 6.72656C0.887072 7.24086 0.465666 8.82715 1.42383 9.73828L1.75879 10.0566L2.10254 9.74707C2.64131 9.26265 3.07571 8.81514 3.5918 8.42188C5.34266 7.08834 7.34943 6.39889 9.55762 6.21484C11.5997 6.04416 13.5518 6.34643 15.4102 7.16309L15.7812 7.33301C15.8903 7.38562 16.0405 7.43481 16.2178 7.41016C16.3894 7.3862 16.5159 7.30168 16.5996 7.2334L16.6006 7.23438ZM16.2031 10.7979C15.5575 10.8068 15.0057 11.3642 15.0146 12.0137C15.0236 12.6591 15.5811 13.211 16.2305 13.2021C16.8761 13.1933 17.4278 12.6357 17.4189 11.9863C17.4101 11.3407 16.8527 10.7889 16.2031 10.7979Z" stroke="#DBDBDB"/>
<path d="M14.9987 0.000239217C15.3872 0.174053 15.5252 0.47056 15.5201 0.894871C15.503 2.22234 15.5133 3.5498 15.5133 4.87726C15.5133 4.96247 15.5133 5.04767 15.5133 5.16354C12.2351 3.97241 8.97059 3.969 5.68392 5.16014C5.67881 5.0613 5.67199 4.98121 5.67199 4.89942C5.67199 3.56343 5.68392 2.22745 5.66518 0.893167C5.66006 0.467152 5.79807 0.172349 6.18654 -0.00146484H14.9987V0.000239217ZM11.2946 2.11498C11.2997 1.7452 10.9709 1.4112 10.5977 1.40609C10.228 1.40098 9.89405 1.72986 9.88894 2.10305C9.88554 2.47454 10.2127 2.80683 10.5858 2.81194C10.9555 2.81705 11.2895 2.48817 11.2946 2.11498Z" fill="#868686"/>
</g>
<defs>
<clipPath id="clip0_102_1151">
<rect width="24" height="24" fill="white"/>
</clipPath>
</defs>
</svg>
